<?xml version="1.0" encoding="UTF-8"?>
<!DOCTYPE svg PUBLIC "-//W3C//DTD SVG 1.1//EN" "http://www.w3.org/Graphics/SVG/1.1/DTD/svg11.dtd">
<!-- Creator: CorelDRAW 2018 (64-Bit Evaluation Version) -->
<svg xmlns="http://www.w3.org/2000/svg" xml:space="preserve" width="274.441mm" height="43.665mm" version="1.1" style="shape-rendering:geometricPrecision; text-rendering:geometricPrecision; image-rendering:optimizeQuality; fill-rule:evenodd; clip-rule:evenodd"
viewBox="0 0 32152.54 5115.63"
 xmlns:xlink="http://www.w3.org/1999/xlink">
 <defs>
  <style type="text/css">
   <![CDATA[
    .str1 {stroke:#373435;stroke-width:23.43;stroke-miterlimit:22.9256}
    .str0 {stroke:#373435;stroke-width:8.93;stroke-miterlimit:22.9256}
    .fil1 {fill:#373435}
    .fil0 {fill:#373435;fill-rule:nonzero}
   ]]>
  </style>
 </defs>
 <g id="Layer_x0020_1">
  <metadata id="CorelCorpID_0Corel-Layer"/>
  <g id="_2742969909328">
   <path class="fil0 str0" d="M26751.68 1841.26c544.99,0 965.98,139.31 1262.96,417.92 296.99,278.62 445.48,684.3 445.48,1217.03 0,532.73 -148.48,938.41 -445.48,1217.03 -296.98,278.61 -717.97,417.92 -1262.96,417.92 -544.98,0 -965.2,-138.54 -1260.66,-415.62 -295.44,-277.09 -443.18,-683.53 -443.18,-1219.33 0,-535.8 147.73,-942.24 443.18,-1219.33 295.46,-277.09 715.68,-415.62 1260.66,-415.62zm0 757.77c-217.38,0 -382.71,65.83 -495.99,197.49 -113.28,131.65 -169.92,309.22 -169.92,532.73l0 293.92c0,223.51 56.65,401.08 169.92,532.73 113.28,131.66 278.61,197.49 495.99,197.49 217.38,0 383.48,-65.83 498.3,-197.49 114.81,-131.65 172.22,-309.22 172.22,-532.73l0 -293.92c0,-223.51 -57.41,-401.08 -172.22,-532.73 -114.82,-131.66 -280.92,-197.49 -498.3,-197.49z"/>
   <polygon class="fil0" points="31266.18,5056.06 29938.93,3522.14 29938.93,5056.06 29006.63,5056.06 29006.63,1896.37 29893,1896.37 31220.25,3453.25 31220.25,1896.37 32152.54,1896.37 32152.54,5056.06 "/>
   <path class="fil0" d="M21327.87 1841.26c468.45,0 838.91,117.11 1111.4,351.33 272.49,234.22 408.74,568.71 408.74,1003.48l-969.02 0c0,-183.7 -48.22,-329.14 -144.68,-436.3 -96.44,-107.15 -233.45,-160.74 -411.03,-160.74 -205.13,0 -355.92,64.3 -452.36,192.9 -96.44,128.59 -144.66,307.7 -144.66,537.33l0 293.92c0,226.57 48.22,404.92 144.66,535.03 96.44,130.13 244.17,195.19 443.18,195.19 195.96,0 344.44,-50.52 445.48,-151.57 101.05,-101.04 151.57,-243.4 151.57,-427.11l936.88 0c0,431.7 -132.42,762.37 -397.25,992 -264.84,229.63 -639.13,344.44 -1122.88,344.44 -538.86,0 -946.83,-137.78 -1223.92,-413.33 -277.07,-275.55 -415.62,-682.76 -415.62,-1221.62 0,-538.86 138.55,-946.07 415.62,-1221.62 277.09,-275.55 685.06,-413.33 1223.92,-413.33z"/>
   <polygon class="fil0" points="13878.74,5056.06 12758.15,1896.37 13842,1896.37 14475.77,4008.95 14494.14,4008.95 15132.51,1896.37 16170.42,1896.37 15054.44,5056.06 "/>
   <polygon class="fil0" points="7825.74,5056.06 6498.49,3522.14 6498.49,5056.06 5566.19,5056.06 5566.19,1896.37 6452.56,1896.37 7779.81,3453.25 7779.81,1896.37 8712.1,1896.37 8712.1,5056.06 "/>
   <polygon class="fil0" points="4000.13,5056.06 2672.87,3522.14 2672.87,5056.06 1740.58,5056.06 1740.58,1896.37 2626.95,1896.37 3954.2,3453.25 3954.2,1896.37 4886.49,1896.37 4886.49,5056.06 "/>
   <polygon class="fil0" points="-0,5056.06 -0,1896.37 1014.96,1896.37 1014.96,5056.06 "/>
   <path class="fil1" d="M23281.58 3471.56l1014.96 0 0 1579.84 -1014.96 0 0 -1579.84zm343.51 0l1014.96 0 0 -1579.84 -1014.96 0 0 1579.84z"/>
   <rect class="fil1 str1" x="8544.95" y="11.71" width="619.94" height="1884.66"/>
   <polygon class="fil1 str1" points="26680.76,869 27554.85,864.79 26711.76,1607.81 26240.59,1607.81 "/>
   <path class="fil1" d="M11616.27 3479.64l311.35 2.32c24.98,-575.84 -198.5,-868.19 -670.4,-877.04 -470.56,9.29 -692.49,301.64 -665.81,877.04l-311.21 -2.32c-0.02,0.52 -0.05,1.03 -0.07,1.55 -26.68,575.4 195.25,867.75 665.81,877.04 471.91,-8.86 695.38,-301.21 670.4,-877.04 -0.02,-0.52 -0.05,-1.03 -0.07,-1.55zm-354.69 -1633.15c1131.77,27.48 1699.63,572.39 1703.58,1634.69l-311.06 -1.55c-19.69,1073.22 -589.09,1618.12 -1708.15,1634.69 -1128.53,-24.23 -1696.39,-569.12 -1703.58,-1634.69l311.06 1.55c14.02,-1067.7 583.4,-1612.61 1708.15,-1634.69z"/>
   <path class="fil1" d="M17764.04 2778.15l339.85 1125.17 -684.29 0 344.44 -1125.17zm-688.88 2277.91l-1037.92 0 1152.74 -3159.68 1180.29 0 1152.72 3159.68 -1074.65 0 -133.18 -445.48 -1106.81 0 -133.18 445.48z"/>
  </g>
 </g>
</svg>
