<?xml version="1.0" encoding="UTF-8"?>
<!DOCTYPE svg PUBLIC "-//W3C//DTD SVG 1.1//EN" "http://www.w3.org/Graphics/SVG/1.1/DTD/svg11.dtd">
<!-- Creator: CorelDRAW 2018 (64-Bit Evaluation Version) -->
<svg xmlns="http://www.w3.org/2000/svg" xml:space="preserve" width="126.244mm" height="30.9548mm" version="1.1" style="shape-rendering:geometricPrecision; text-rendering:geometricPrecision; image-rendering:optimizeQuality; fill-rule:evenodd; clip-rule:evenodd"
viewBox="0 0 8172.33 2003.84"
 xmlns:xlink="http://www.w3.org/1999/xlink">
 <defs>
  <style type="text/css">
   <![CDATA[
    .str0 {stroke:#373435;stroke-width:12.95;stroke-miterlimit:22.9256}
    .fil0 {fill:#373435}
    .fil1 {fill:#373435;fill-rule:nonzero}
   ]]>
  </style>
 </defs>
 <g id="Layer_x0020_1">
  <metadata id="CorelCorpID_0Corel-Layer"/>
  <path class="fil0" d="M7200.42 715.17l187.78 621.71 -378.1 0 190.32 -621.71zm-380.64 1258.65l-573.5 0 636.94 -1745.87 652.17 0 636.93 1745.87 -593.79 0 -73.59 -246.15 -611.56 0 -73.59 246.15z"/>
  <path class="fil1" d="M1535.01 1973.82l0 -629.23c0,-77.8 2.96,-157.73 8.88,-239.76 5.92,-82.04 12.26,-150.96 19.03,-206.78 6.77,-55.82 10.99,-91.34 12.69,-106.57l-10.15 0 -322.23 1182.34 -438.94 0 -324.76 -1179.8 -10.15 0c1.69,15.23 6.35,50.32 13.96,105.29 7.61,54.98 14.8,123.48 21.57,205.52 6.76,82.04 10.15,161.96 10.15,239.76l0 629.23 -515.05 0 0 -1745.6 791.6 0 263.87 1007.27 10.15 0 261.33 -1007.27 763.7 0 0 1745.6 -555.65 0z"/>
  <rect class="fil0 str0" transform="matrix(1.52852E-14 -0.579881 0.577135 1.53579E-14 6314.77 205.111)" width="342.55" height="1041.36"/>
  <path class="fil0" d="M3656.21 1100.59l172.04 1.28c13.8,-318.18 -109.68,-479.71 -370.43,-484.61 -260.01,5.13 -382.63,166.67 -367.89,484.61l-171.96 -1.28c-0.01,0.28 -0.03,0.57 -0.04,0.85 -14.74,317.94 107.89,479.47 367.89,484.61 260.75,-4.89 384.23,-166.43 370.43,-484.61 -0.01,-0.28 -0.03,-0.57 -0.04,-0.85zm-195.98 -902.39c625.35,15.19 939.13,316.27 941.31,903.24l-171.88 -0.85c-10.88,593.01 -325.5,894.08 -943.83,903.24 -623.57,-13.39 -937.33,-314.47 -941.31,-903.24l171.88 0.85c7.75,-589.96 322.36,-891.04 943.83,-903.24z"/>
  <path class="fil1" d="M5104.85 1555.18l185.22 0c235.12,0 352.67,-126.01 352.67,-378.04l0 -152.23c0,-252.03 -117.56,-378.04 -352.67,-378.04l-185.22 0 0 908.31zm195.37 -1326.96c610.62,0 915.93,290.94 915.93,872.8 0,581.86 -305.31,872.8 -915.93,872.8l-756.09 0 0 -1745.6 756.09 0z"/>
 </g>
</svg>
